<mxfile host="Electron" agent="Mozilla/5.0 (Windows NT 10.0; Win64; x64) AppleWebKit/537.36 (KHTML, like Gecko) draw.io/28.1.2 Chrome/138.0.7204.243 Electron/37.4.0 Safari/537.36" version="28.1.2">
  <diagram name="Page-1" id="jLe9ASkdljaN9P2C4b8r">
    <mxGraphModel dx="930" dy="611" grid="1" gridSize="10" guides="1" tooltips="1" connect="1" arrows="1" fold="1" page="1" pageScale="1" pageWidth="1920" pageHeight="1200" math="0" shadow="0">
      <root>
        <mxCell id="0" />
        <mxCell id="1" parent="0" />
        <mxCell id="AnBokrwv04i174QOUSZK-1" value="" style="rounded=0;whiteSpace=wrap;html=1;dashed=1;fillColor=none;" parent="1" vertex="1">
          <mxGeometry x="220" y="320" width="180" height="400" as="geometry" />
        </mxCell>
        <mxCell id="AnBokrwv04i174QOUSZK-2" value="&lt;font style=&quot;font-size: 24px;&quot;&gt;Sources&lt;/font&gt;" style="rounded=0;whiteSpace=wrap;html=1;fillColor=default;strokeColor=none;" parent="1" vertex="1">
          <mxGeometry x="255" y="300" width="110" height="40" as="geometry" />
        </mxCell>
        <mxCell id="AnBokrwv04i174QOUSZK-24" style="edgeStyle=orthogonalEdgeStyle;rounded=0;orthogonalLoop=1;jettySize=auto;html=1;entryX=0;entryY=0.5;entryDx=0;entryDy=0;" parent="1" source="AnBokrwv04i174QOUSZK-3" target="AnBokrwv04i174QOUSZK-8" edge="1">
          <mxGeometry relative="1" as="geometry" />
        </mxCell>
        <mxCell id="AnBokrwv04i174QOUSZK-25" style="edgeStyle=orthogonalEdgeStyle;rounded=0;orthogonalLoop=1;jettySize=auto;html=1;entryX=0;entryY=0.5;entryDx=0;entryDy=0;" parent="1" source="AnBokrwv04i174QOUSZK-3" target="AnBokrwv04i174QOUSZK-10" edge="1">
          <mxGeometry relative="1" as="geometry" />
        </mxCell>
        <mxCell id="AnBokrwv04i174QOUSZK-26" style="edgeStyle=orthogonalEdgeStyle;rounded=0;orthogonalLoop=1;jettySize=auto;html=1;entryX=0;entryY=0.25;entryDx=0;entryDy=0;" parent="1" edge="1">
          <mxGeometry relative="1" as="geometry">
            <mxPoint x="344.5" y="465.35176470588243" as="sourcePoint" />
            <mxPoint x="509.9999999999998" y="464.44" as="targetPoint" />
          </mxGeometry>
        </mxCell>
        <mxCell id="AnBokrwv04i174QOUSZK-3" value="&lt;b&gt;CRM&lt;/b&gt;" style="image;aspect=fixed;html=1;points=[];align=center;fontSize=12;image=img/lib/azure2/general/Folder_Blank.svg;" parent="1" vertex="1">
          <mxGeometry x="274.5" y="436.6" width="70" height="56.81" as="geometry" />
        </mxCell>
        <mxCell id="AnBokrwv04i174QOUSZK-29" style="edgeStyle=orthogonalEdgeStyle;rounded=0;orthogonalLoop=1;jettySize=auto;html=1;entryX=0;entryY=0.5;entryDx=0;entryDy=0;" parent="1" source="AnBokrwv04i174QOUSZK-4" target="AnBokrwv04i174QOUSZK-17" edge="1">
          <mxGeometry relative="1" as="geometry" />
        </mxCell>
        <mxCell id="AnBokrwv04i174QOUSZK-30" style="edgeStyle=orthogonalEdgeStyle;rounded=0;orthogonalLoop=1;jettySize=auto;html=1;entryX=0;entryY=0.5;entryDx=0;entryDy=0;" parent="1" source="AnBokrwv04i174QOUSZK-4" target="AnBokrwv04i174QOUSZK-15" edge="1">
          <mxGeometry relative="1" as="geometry" />
        </mxCell>
        <mxCell id="AnBokrwv04i174QOUSZK-31" style="edgeStyle=orthogonalEdgeStyle;rounded=0;orthogonalLoop=1;jettySize=auto;html=1;" parent="1" source="AnBokrwv04i174QOUSZK-4" target="AnBokrwv04i174QOUSZK-16" edge="1">
          <mxGeometry relative="1" as="geometry" />
        </mxCell>
        <mxCell id="AnBokrwv04i174QOUSZK-4" value="&lt;b&gt;ERP&lt;/b&gt;" style="image;aspect=fixed;html=1;points=[];align=center;fontSize=12;image=img/lib/azure2/general/Folder_Blank.svg;" parent="1" vertex="1">
          <mxGeometry x="274.5" y="607" width="69" height="56.00000000000001" as="geometry" />
        </mxCell>
        <mxCell id="AnBokrwv04i174QOUSZK-6" value="" style="rounded=1;whiteSpace=wrap;html=1;fillStyle=hatch;fillColor=#ffe6cc;strokeColor=#d79b00;" parent="1" vertex="1">
          <mxGeometry x="495" y="340" width="180" height="380" as="geometry" />
        </mxCell>
        <mxCell id="AnBokrwv04i174QOUSZK-7" value="&lt;b&gt;&lt;font style=&quot;font-size: 20px;&quot;&gt;Bronze Layer&lt;/font&gt;&lt;/b&gt;" style="rounded=1;whiteSpace=wrap;html=1;strokeColor=#d79b00;fillColor=#ffe6cc;" parent="1" vertex="1">
          <mxGeometry x="507.5" y="300" width="155" height="40" as="geometry" />
        </mxCell>
        <mxCell id="enSFWUsFMItM1wg9cQMi-15" style="edgeStyle=orthogonalEdgeStyle;rounded=0;orthogonalLoop=1;jettySize=auto;html=1;entryX=0;entryY=0.5;entryDx=0;entryDy=0;" parent="1" source="AnBokrwv04i174QOUSZK-8" target="enSFWUsFMItM1wg9cQMi-3" edge="1">
          <mxGeometry relative="1" as="geometry" />
        </mxCell>
        <mxCell id="AnBokrwv04i174QOUSZK-8" value="&lt;font style=&quot;font-size: 16px;&quot;&gt;crm_cust_info&lt;/font&gt;" style="rounded=1;whiteSpace=wrap;html=1;fillColor=#ffe6cc;strokeColor=#d79b00;fillStyle=solid;" parent="1" vertex="1">
          <mxGeometry x="510" y="400" width="150" height="30" as="geometry" />
        </mxCell>
        <mxCell id="enSFWUsFMItM1wg9cQMi-16" style="edgeStyle=orthogonalEdgeStyle;rounded=0;orthogonalLoop=1;jettySize=auto;html=1;entryX=0;entryY=0.5;entryDx=0;entryDy=0;" parent="1" source="AnBokrwv04i174QOUSZK-9" target="enSFWUsFMItM1wg9cQMi-4" edge="1">
          <mxGeometry relative="1" as="geometry" />
        </mxCell>
        <mxCell id="AnBokrwv04i174QOUSZK-9" value="&lt;font style=&quot;font-size: 16px;&quot;&gt;crm_prd_info&lt;/font&gt;" style="rounded=1;whiteSpace=wrap;html=1;fillColor=#ffe6cc;strokeColor=#d79b00;fillStyle=solid;" parent="1" vertex="1">
          <mxGeometry x="510" y="450" width="150" height="30" as="geometry" />
        </mxCell>
        <mxCell id="enSFWUsFMItM1wg9cQMi-17" style="edgeStyle=orthogonalEdgeStyle;rounded=0;orthogonalLoop=1;jettySize=auto;html=1;entryX=0;entryY=0.5;entryDx=0;entryDy=0;" parent="1" source="AnBokrwv04i174QOUSZK-10" target="enSFWUsFMItM1wg9cQMi-5" edge="1">
          <mxGeometry relative="1" as="geometry" />
        </mxCell>
        <mxCell id="AnBokrwv04i174QOUSZK-10" value="&lt;font style=&quot;font-size: 16px;&quot;&gt;crm_sales_details&lt;/font&gt;" style="rounded=1;whiteSpace=wrap;html=1;fillColor=#ffe6cc;strokeColor=#d79b00;fillStyle=solid;" parent="1" vertex="1">
          <mxGeometry x="510" y="500" width="150" height="30" as="geometry" />
        </mxCell>
        <mxCell id="AnBokrwv04i174QOUSZK-15" value="&lt;font style=&quot;font-size: 16px;&quot;&gt;erp_CUST_AZ12&lt;/font&gt;" style="rounded=1;whiteSpace=wrap;html=1;fillColor=#ffe6cc;strokeColor=#d79b00;fillStyle=solid;" parent="1" vertex="1">
          <mxGeometry x="510" y="570" width="150" height="30" as="geometry" />
        </mxCell>
        <mxCell id="enSFWUsFMItM1wg9cQMi-19" style="edgeStyle=orthogonalEdgeStyle;rounded=0;orthogonalLoop=1;jettySize=auto;html=1;entryX=0;entryY=0.5;entryDx=0;entryDy=0;" parent="1" source="AnBokrwv04i174QOUSZK-16" target="enSFWUsFMItM1wg9cQMi-7" edge="1">
          <mxGeometry relative="1" as="geometry" />
        </mxCell>
        <mxCell id="AnBokrwv04i174QOUSZK-16" value="&lt;font style=&quot;font-size: 16px;&quot;&gt;erp_LOC_A101&lt;/font&gt;" style="rounded=1;whiteSpace=wrap;html=1;fillColor=#ffe6cc;strokeColor=#d79b00;fillStyle=solid;" parent="1" vertex="1">
          <mxGeometry x="510" y="620" width="150" height="30" as="geometry" />
        </mxCell>
        <mxCell id="enSFWUsFMItM1wg9cQMi-20" style="edgeStyle=orthogonalEdgeStyle;rounded=0;orthogonalLoop=1;jettySize=auto;html=1;entryX=0;entryY=0.5;entryDx=0;entryDy=0;" parent="1" source="AnBokrwv04i174QOUSZK-17" target="enSFWUsFMItM1wg9cQMi-8" edge="1">
          <mxGeometry relative="1" as="geometry" />
        </mxCell>
        <mxCell id="AnBokrwv04i174QOUSZK-17" value="&lt;font style=&quot;font-size: 16px;&quot;&gt;erp_PX_CAT_G1V2&lt;/font&gt;" style="rounded=1;whiteSpace=wrap;html=1;fillColor=#ffe6cc;strokeColor=#d79b00;fillStyle=solid;" parent="1" vertex="1">
          <mxGeometry x="510" y="670" width="152.5" height="30" as="geometry" />
        </mxCell>
        <mxCell id="enSFWUsFMItM1wg9cQMi-1" value="" style="rounded=1;whiteSpace=wrap;html=1;fillStyle=hatch;" parent="1" vertex="1">
          <mxGeometry x="760" y="340" width="180" height="380" as="geometry" />
        </mxCell>
        <mxCell id="enSFWUsFMItM1wg9cQMi-2" value="&lt;b&gt;&lt;font style=&quot;font-size: 20px;&quot;&gt;Silver Layer&lt;/font&gt;&lt;/b&gt;" style="rounded=1;whiteSpace=wrap;html=1;strokeColor=#666666;fillColor=#f5f5f5;fontColor=#333333;" parent="1" vertex="1">
          <mxGeometry x="772.5" y="300" width="155" height="40" as="geometry" />
        </mxCell>
        <mxCell id="enSFWUsFMItM1wg9cQMi-3" value="&lt;font style=&quot;font-size: 16px;&quot;&gt;crm_cust_info&lt;/font&gt;" style="rounded=1;whiteSpace=wrap;html=1;fillColor=#f5f5f5;strokeColor=#666666;fillStyle=solid;fontColor=#333333;" parent="1" vertex="1">
          <mxGeometry x="775" y="400" width="150" height="30" as="geometry" />
        </mxCell>
        <mxCell id="enSFWUsFMItM1wg9cQMi-4" value="&lt;font style=&quot;font-size: 16px;&quot;&gt;crm_prd_info&lt;/font&gt;" style="rounded=1;whiteSpace=wrap;html=1;fillColor=#f5f5f5;strokeColor=#666666;fillStyle=solid;fontColor=#333333;" parent="1" vertex="1">
          <mxGeometry x="775" y="450" width="150" height="30" as="geometry" />
        </mxCell>
        <mxCell id="enSFWUsFMItM1wg9cQMi-5" value="&lt;font style=&quot;font-size: 16px;&quot;&gt;crm_sales_details&lt;/font&gt;" style="rounded=1;whiteSpace=wrap;html=1;fillColor=#f5f5f5;strokeColor=#666666;fillStyle=solid;fontColor=#333333;" parent="1" vertex="1">
          <mxGeometry x="775" y="500" width="150" height="30" as="geometry" />
        </mxCell>
        <mxCell id="enSFWUsFMItM1wg9cQMi-6" value="&lt;font style=&quot;font-size: 16px;&quot;&gt;erp_CUST_AZ12&lt;/font&gt;" style="rounded=1;whiteSpace=wrap;html=1;fillColor=#f5f5f5;strokeColor=#666666;fillStyle=solid;fontColor=#333333;" parent="1" vertex="1">
          <mxGeometry x="775" y="570" width="150" height="30" as="geometry" />
        </mxCell>
        <mxCell id="enSFWUsFMItM1wg9cQMi-7" value="&lt;font style=&quot;font-size: 16px;&quot;&gt;erp_LOC_A101&lt;/font&gt;" style="rounded=1;whiteSpace=wrap;html=1;fillColor=#f5f5f5;strokeColor=#666666;fillStyle=solid;fontColor=#333333;" parent="1" vertex="1">
          <mxGeometry x="775" y="620" width="150" height="30" as="geometry" />
        </mxCell>
        <mxCell id="enSFWUsFMItM1wg9cQMi-8" value="&lt;font style=&quot;font-size: 16px;&quot;&gt;erp_PX_CAT_G1V2&lt;/font&gt;" style="rounded=1;whiteSpace=wrap;html=1;fillColor=#f5f5f5;strokeColor=#666666;fillStyle=solid;fontColor=#333333;" parent="1" vertex="1">
          <mxGeometry x="775" y="670" width="152.5" height="30" as="geometry" />
        </mxCell>
        <mxCell id="enSFWUsFMItM1wg9cQMi-18" style="edgeStyle=orthogonalEdgeStyle;rounded=0;orthogonalLoop=1;jettySize=auto;html=1;entryX=0.056;entryY=0.645;entryDx=0;entryDy=0;entryPerimeter=0;" parent="1" source="AnBokrwv04i174QOUSZK-15" target="enSFWUsFMItM1wg9cQMi-1" edge="1">
          <mxGeometry relative="1" as="geometry" />
        </mxCell>
        <mxCell id="HYiyDLLMXq2Nv5ZoNzs5-1" value="" style="rounded=1;whiteSpace=wrap;html=1;fillStyle=hatch;fillColor=#fff2cc;strokeColor=#d6b656;" vertex="1" parent="1">
          <mxGeometry x="1040" y="340" width="180" height="380" as="geometry" />
        </mxCell>
        <mxCell id="HYiyDLLMXq2Nv5ZoNzs5-2" value="&lt;b&gt;&lt;font style=&quot;font-size: 20px;&quot;&gt;Silver Layer&lt;/font&gt;&lt;/b&gt;" style="rounded=1;whiteSpace=wrap;html=1;strokeColor=#d6b656;fillColor=#fff2cc;" vertex="1" parent="1">
          <mxGeometry x="1052.5" y="300" width="155" height="40" as="geometry" />
        </mxCell>
        <mxCell id="HYiyDLLMXq2Nv5ZoNzs5-3" value="&lt;font style=&quot;font-size: 16px;&quot;&gt;fact_sales&lt;/font&gt;" style="rounded=1;whiteSpace=wrap;html=1;fillColor=#fff2cc;strokeColor=#d6b656;fillStyle=solid;" vertex="1" parent="1">
          <mxGeometry x="1052.5" y="400" width="150" height="30" as="geometry" />
        </mxCell>
        <mxCell id="HYiyDLLMXq2Nv5ZoNzs5-4" value="&lt;font style=&quot;font-size: 16px;&quot;&gt;dim_customers&lt;/font&gt;" style="rounded=1;whiteSpace=wrap;html=1;fillColor=#fff2cc;strokeColor=#d6b656;fillStyle=solid;" vertex="1" parent="1">
          <mxGeometry x="1057.5" y="500" width="150" height="30" as="geometry" />
        </mxCell>
        <mxCell id="HYiyDLLMXq2Nv5ZoNzs5-5" value="&lt;font style=&quot;font-size: 16px;&quot;&gt;dim_products&lt;/font&gt;" style="rounded=1;whiteSpace=wrap;html=1;fillColor=#fff2cc;strokeColor=#d6b656;fillStyle=solid;" vertex="1" parent="1">
          <mxGeometry x="1057.5" y="600" width="150" height="30" as="geometry" />
        </mxCell>
        <mxCell id="HYiyDLLMXq2Nv5ZoNzs5-9" value="" style="endArrow=classic;html=1;rounded=0;entryX=0;entryY=0.5;entryDx=0;entryDy=0;exitX=1;exitY=0.5;exitDx=0;exitDy=0;" edge="1" parent="1" source="enSFWUsFMItM1wg9cQMi-3" target="HYiyDLLMXq2Nv5ZoNzs5-3">
          <mxGeometry width="50" height="50" relative="1" as="geometry">
            <mxPoint x="930" y="422" as="sourcePoint" />
            <mxPoint x="970" y="370" as="targetPoint" />
            <Array as="points" />
          </mxGeometry>
        </mxCell>
        <mxCell id="HYiyDLLMXq2Nv5ZoNzs5-10" value="" style="endArrow=classic;html=1;rounded=0;entryX=0;entryY=0.5;entryDx=0;entryDy=0;exitX=1;exitY=0.5;exitDx=0;exitDy=0;jumpStyle=gap;" edge="1" parent="1" source="enSFWUsFMItM1wg9cQMi-4" target="HYiyDLLMXq2Nv5ZoNzs5-4">
          <mxGeometry width="50" height="50" relative="1" as="geometry">
            <mxPoint x="927.5" y="464.29" as="sourcePoint" />
            <mxPoint x="1055.5" y="464.29" as="targetPoint" />
            <Array as="points" />
          </mxGeometry>
        </mxCell>
        <mxCell id="HYiyDLLMXq2Nv5ZoNzs5-11" value="" style="endArrow=classic;html=1;rounded=0;entryX=0;entryY=0.5;entryDx=0;entryDy=0;exitX=1;exitY=0.5;exitDx=0;exitDy=0;jumpStyle=gap;" edge="1" parent="1" source="enSFWUsFMItM1wg9cQMi-5" target="HYiyDLLMXq2Nv5ZoNzs5-5">
          <mxGeometry width="50" height="50" relative="1" as="geometry">
            <mxPoint x="925" y="470" as="sourcePoint" />
            <mxPoint x="1055.5" y="535.71" as="targetPoint" />
            <Array as="points" />
          </mxGeometry>
        </mxCell>
        <mxCell id="HYiyDLLMXq2Nv5ZoNzs5-12" value="" style="endArrow=classic;html=1;rounded=0;entryX=0;entryY=0.5;entryDx=0;entryDy=0;exitX=1;exitY=0.5;exitDx=0;exitDy=0;jumpStyle=gap;" edge="1" parent="1" source="enSFWUsFMItM1wg9cQMi-6" target="HYiyDLLMXq2Nv5ZoNzs5-4">
          <mxGeometry width="50" height="50" relative="1" as="geometry">
            <mxPoint x="935" y="525" as="sourcePoint" />
            <mxPoint x="1068" y="590" as="targetPoint" />
            <Array as="points" />
          </mxGeometry>
        </mxCell>
        <mxCell id="HYiyDLLMXq2Nv5ZoNzs5-13" value="" style="endArrow=classic;html=1;rounded=0;exitX=1;exitY=0.5;exitDx=0;exitDy=0;jumpStyle=gap;" edge="1" parent="1" source="enSFWUsFMItM1wg9cQMi-7">
          <mxGeometry width="50" height="50" relative="1" as="geometry">
            <mxPoint x="935" y="595" as="sourcePoint" />
            <mxPoint x="1058" y="515" as="targetPoint" />
            <Array as="points" />
          </mxGeometry>
        </mxCell>
        <mxCell id="HYiyDLLMXq2Nv5ZoNzs5-14" value="" style="endArrow=classic;html=1;rounded=0;exitX=1;exitY=0.5;exitDx=0;exitDy=0;jumpStyle=gap;entryX=0;entryY=0.5;entryDx=0;entryDy=0;" edge="1" parent="1" source="enSFWUsFMItM1wg9cQMi-8" target="HYiyDLLMXq2Nv5ZoNzs5-5">
          <mxGeometry width="50" height="50" relative="1" as="geometry">
            <mxPoint x="925" y="687.5" as="sourcePoint" />
            <mxPoint x="1060" y="582.5" as="targetPoint" />
            <Array as="points" />
          </mxGeometry>
        </mxCell>
      </root>
    </mxGraphModel>
  </diagram>
</mxfile>
